<svg width="416mm" height="223mm" viewBox="0 0 416 223" xmlns="http://www.w3.org/2000/svg" version="1.1" preserveAspectRatio="xMidYMid meet"><g id="svgGroup" stroke-linecap="round" fill-rule="evenodd" font-size="9pt" stroke="#000" stroke-width="0.25mm" fill="none" style="stroke:#000;stroke-width:0.25mm;fill:none"><path d="M 0 153 L 0 175.681 L 3 175.681 L 3 200.319 L 0 200.319 L 0 223 L 38.043 223 L 38.043 220 L 62.681 220 L 62.681 223 L 87.319 223 L 87.319 220 L 111.957 220 L 111.957 223 L 136.595 223 L 150 223 L 150 200.319 L 147 200.319 L 147 175.681 L 150 175.681 L 150 153 L 111.957 153 L 111.957 156 L 87.319 156 L 87.319 153 L 62.681 153 L 62.681 156 L 38.043 156 L 38.043 153 L 13.405 153 L 0 153 Z" id="front_outsideCutPath" stroke="#000000" stroke-width="0.1" style="stroke:#000000;stroke-width:0.1" vector-effect="non-scaling-stroke"/><path d="M 156 153 L 156 175.681 L 153 175.681 L 153 200.319 L 156 200.319 L 156 223 L 171.043 223 L 171.043 220 L 195.681 220 L 195.681 223 L 220.319 223 L 220.319 220 L 244.957 220 L 244.957 223 L 260 223 L 260 200.319 L 263 200.319 L 263 175.681 L 260 175.681 L 260 153 L 244.957 153 L 244.957 156 L 220.319 156 L 220.319 153 L 195.681 153 L 195.681 156 L 171.043 156 L 171.043 153 L 156 153 Z" id="left_outsideCutPath" stroke="#000000" stroke-width="0.1" style="stroke:#000000;stroke-width:0.1" vector-effect="non-scaling-stroke"/><path d="M 269 116 L 269 131.043 L 266 131.043 L 266 155.681 L 269 155.681 L 269 180.319 L 266 180.319 L 266 204.957 L 269 204.957 L 269 220 L 304.043 220 L 304.043 223 L 328.681 223 L 328.681 220 L 353.319 220 L 353.319 223 L 377.957 223 L 377.957 220 L 402.595 220 L 413 220 L 413 204.957 L 416 204.957 L 416 180.319 L 413 180.319 L 413 155.681 L 416 155.681 L 416 131.043 L 413 131.043 L 413 116 L 377.957 116 L 377.957 113 L 353.319 113 L 353.319 116 L 328.681 116 L 328.681 113 L 304.043 113 L 304.043 116 L 279.405 116 L 269 116 Z" id="top_outsideCutPath" stroke="#000000" stroke-width="0.1" style="stroke:#000000;stroke-width:0.1" vector-effect="non-scaling-stroke"/><path d="M 0 80 L 0 102.681 L 3 102.681 L 3 127.319 L 0 127.319 L 0 150 L 38.043 150 L 38.043 147 L 62.681 147 L 62.681 150 L 87.319 150 L 87.319 147 L 111.957 147 L 111.957 150 L 136.595 150 L 150 150 L 150 127.319 L 147 127.319 L 147 102.681 L 150 102.681 L 150 80 L 111.957 80 L 111.957 83 L 87.319 83 L 87.319 80 L 62.681 80 L 62.681 83 L 38.043 83 L 38.043 80 L 13.405 80 L 0 80 Z" id="back_outsideCutPath" stroke="#000000" stroke-width="0.1" style="stroke:#000000;stroke-width:0.1" vector-effect="non-scaling-stroke"/><path d="M 156 80 L 156 102.681 L 153 102.681 L 153 127.319 L 156 127.319 L 156 150 L 171.043 150 L 171.043 147 L 195.681 147 L 195.681 150 L 220.319 150 L 220.319 147 L 244.957 147 L 244.957 150 L 260 150 L 260 127.319 L 263 127.319 L 263 102.681 L 260 102.681 L 260 80 L 244.957 80 L 244.957 83 L 220.319 83 L 220.319 80 L 195.681 80 L 195.681 83 L 171.043 83 L 171.043 80 L 156 80 Z" id="right_outsideCutPath" stroke="#000000" stroke-width="0.1" style="stroke:#000000;stroke-width:0.1" vector-effect="non-scaling-stroke"/><path d="M 269 3 L 269 18.043 L 266 18.043 L 266 42.681 L 269 42.681 L 269 67.319 L 266 67.319 L 266 91.957 L 269 91.957 L 269 107 L 304.043 107 L 304.043 110 L 328.681 110 L 328.681 107 L 353.319 107 L 353.319 110 L 377.957 110 L 377.957 107 L 402.595 107 L 413 107 L 413 91.957 L 416 91.957 L 416 67.319 L 413 67.319 L 413 42.681 L 416 42.681 L 416 18.043 L 413 18.043 L 413 3 L 377.957 3 L 377.957 0 L 353.319 0 L 353.319 3 L 328.681 3 L 328.681 0 L 304.043 0 L 304.043 3 L 279.405 3 L 269 3 Z" id="bottom_outsideCutPath" stroke="#000000" stroke-width="0.1" style="stroke:#000000;stroke-width:0.1" vector-effect="non-scaling-stroke"/></g></svg>